<svg xmlns="http://www.w3.org/2000/svg" version="1.1" xmlns:xlink="http://www.w3.org/1999/xlink" xmlns:svgjs="http://svgjs.com/svgjs" width="512" height="512" x="0" y="0" viewBox="0 0 512 512" style="enable-background:new 0 0 512 512" xml:space="preserve" class=""><g>
<circle xmlns="http://www.w3.org/2000/svg" style="" cx="256" cy="256" r="256" fill="#f2f2f4" data-original="#f2f2f4"></circle>
<path xmlns="http://www.w3.org/2000/svg" style="" d="M256,0v512c141.385,0,256-114.615,256-256S397.385,0,256,0z" fill="#dfdfe1" data-original="#dfdfe1" class=""></path>
<path xmlns="http://www.w3.org/2000/svg" style="" d="M194.401,284.977C168.121,265.875,151,234.902,151,200c0-57.897,47.103-105,105-105  s105,47.103,105,105c0,34.902-17.121,65.875-43.401,84.977c64.211,21.433,113.664,75.415,128.677,142.272  C487.128,381.888,512,321.852,512,256C512,114.615,397.385,0,256,0S0,114.615,0,256c0,65.852,24.872,125.888,65.724,171.249  C80.737,360.392,130.19,306.41,194.401,284.977z" fill="#68d0e8" data-original="#68d0e8"></path>
<path xmlns="http://www.w3.org/2000/svg" style="" d="M256,0v95c57.897,0,105,47.103,105,105c0,34.902-17.121,65.875-43.401,84.977  c64.211,21.433,113.664,75.415,128.677,142.272C487.128,381.888,512,321.852,512,256C512,114.615,397.385,0,256,0z" fill="#35a2dd" data-original="#35a2dd"></path>
<g xmlns="http://www.w3.org/2000/svg">
</g>
<g xmlns="http://www.w3.org/2000/svg">
</g>
<g xmlns="http://www.w3.org/2000/svg">
</g>
<g xmlns="http://www.w3.org/2000/svg">
</g>
<g xmlns="http://www.w3.org/2000/svg">
</g>
<g xmlns="http://www.w3.org/2000/svg">
</g>
<g xmlns="http://www.w3.org/2000/svg">
</g>
<g xmlns="http://www.w3.org/2000/svg">
</g>
<g xmlns="http://www.w3.org/2000/svg">
</g>
<g xmlns="http://www.w3.org/2000/svg">
</g>
<g xmlns="http://www.w3.org/2000/svg">
</g>
<g xmlns="http://www.w3.org/2000/svg">
</g>
<g xmlns="http://www.w3.org/2000/svg">
</g>
<g xmlns="http://www.w3.org/2000/svg">
</g>
<g xmlns="http://www.w3.org/2000/svg">
</g>
</g></svg>