<svg xmlns="http://www.w3.org/2000/svg" version="1.1" xmlns:xlink="http://www.w3.org/1999/xlink" xmlns:svgjs="http://svgjs.com/svgjs" width="512" height="512" x="0" y="0" viewBox="0 0 32 32" style="enable-background:new 0 0 512 512" xml:space="preserve" class=""><g><path xmlns="http://www.w3.org/2000/svg" id="XMLID_894_" d="m13 17h5.004v-4h-10.462l1.516-3.394c.159-.368.52-.606.92-.606h6.17c-.193-1.011-.196-1.968.004-3h-6.174c-1.602 0-3.045.952-3.676 2.424l-2.168 5.06c-1.263.673-2.134 1.988-2.134 3.516v2c0 1.474.81 2.75 2 3.444v3.556c0 1.103.897 2 2 2h3c1.103 0 2-.897 2-2v-3h7.004v-4h-5.004c-.552 0-1-.448-1-1s.448-1 1-1zm-5.5 3.5c-1.381 0-2.5-1.119-2.5-2.5s1.119-2.5 2.5-2.5 2.5 1.119 2.5 2.5-1.119 2.5-2.5 2.5z" fill="#000000" data-original="#000000" class=""></path><path xmlns="http://www.w3.org/2000/svg" id="XMLID_948_" d="m29.922 6.477c-.413-2.367-2.399-4.06-3.537-4.405-.192-.058-.381.094-.381.294v5.017c0 .379-.214.725-.553.894l-1 .5c-.282.141-.613.141-.894 0l-1-.5c-.339-.169-.553-.516-.553-.894v-5.017c0-.201-.19-.353-.383-.294-1.139.353-3.124 2.072-3.534 4.419-.352 2.016.404 3.993 1.597 5.187.196.196.319.449.319.726v13.597c0 2.208 1.79 3.998 3.998 3.998 2.208 0 3.998-1.79 3.998-3.998l.003-13.592c0-.28.127-.538.325-.737 1.201-1.2 1.946-3.186 1.595-5.195zm-5.913 21.023c-.828 0-1.5-.672-1.5-1.5s.672-1.5 1.5-1.5 1.5.672 1.5 1.5-.672 1.5-1.5 1.5z" fill="#000000" data-original="#000000" class=""></path></g></svg>