<svg xmlns="http://www.w3.org/2000/svg" version="1.1" xmlns:xlink="http://www.w3.org/1999/xlink" xmlns:svgjs="http://svgjs.com/svgjs" width="512" height="512" x="0" y="0" viewBox="0 0 512 512" style="enable-background:new 0 0 512 512" xml:space="preserve" class=""><g><path xmlns="http://www.w3.org/2000/svg" d="m331.894531 333.847656-37.847656-68.339844c-13.96875-24.988281-41.449219-40.507812-71.726563-40.507812h-92.671874c-30.25 0-57.722657 15.5-71.734376 40.523438l-37.570312 67.710937c-.382812.691406-.707031 1.394531-1 2.109375-12.035156 12.898438-19.34375 29.722656-19.34375 48.117188v108.539062c0 11.046875 8.953125 20 20 20h52.882812c11.042969 0 20-8.953125 20-20v-10h166.234376v10c0 11.046875 8.957031 20 20 20h52.882812c11.046875 0 20-8.953125 20-20v-109c0-18.136719-6.988281-35.128906-19.761719-48.445312-.117187-.234376-.214843-.476563-.34375-.707032zm-202.246093-68.847656h92.671874c15.5625 0 30.011719 7.859375 36.769532 19.953125l13.871094 25.046875h-193.980469l13.871093-25.003906c6.800782-12.144532 21.246094-19.996094 36.796876-19.996094zm182.351562 177h-72.75l-17.9375-24.738281c-3.761719-5.191407-9.78125-8.261719-16.191406-8.261719h-57.449219c-6.597656 0-12.773437 3.257812-16.5 8.703125l-16.636719 24.296875h-74.535156v-58.539062c0-18.449219 17.417969-33.460938 38.832031-33.460938h194.339844c21.410156 0 38.828125 14.804688 38.828125 33zm-27-45c0 11.046875-8.953125 20-20 20s-20-8.953125-20-20 8.953125-20 20-20 20 8.953125 20 20zm-179 0c0 11.046875-8.953125 20-20 20s-20-8.953125-20-20 8.953125-20 20-20 20 8.953125 20 20zm-66-206v-32.539062c0-18.394532 7.308594-35.21875 19.34375-48.117188.292969-.710938.617188-1.417969 1-2.109375l37.570312-67.710937c14.011719-25.023438 41.484376-40.523438 71.734376-40.523438h92.671874c20.355469 0 39.253907 6.1875 53.214844 17.414062 8.605469 6.925782 9.972656 19.515626 3.046875 28.121094-6.921875 8.605469-19.511719 9.972656-28.117187 3.050782-6.882813-5.535157-16.878906-8.585938-28.144532-8.585938h-92.671874c-15.550782 0-29.996094 7.851562-36.796876 19.996094l-13.871093 25.003906h49.019531c11.046875 0 20 8.953125 20 20s-8.953125 20-20 20h-49.167969c-21.414062 0-38.832031 15.011719-38.832031 33.460938v32.539062c0 11.046875-8.953125 20-20 20s-20-8.953125-20-20zm86-39c11.046875 0 20 8.953125 20 20s-8.953125 20-20 20-20-8.953125-20-20 8.953125-20 20-20zm299 128c-11.046875 0-20-8.953125-20-20s8.953125-20 20-20 20 8.953125 20 20-8.953125 20-20 20zm87-39v119c0 11.046875-8.953125 20-20 20h-52.882812c-11.042969 0-20-8.953125-20-20v-10h-23.117188c-11.046875 0-20-8.953125-20-20s8.953125-20 20-20h76v-67c0-18.195312-17.417969-33-38.832031-33h-142.167969c-11.0625 0-20.027344-8.984375-20-20.046875.023438-11.027344 8.972656-19.953125 20-19.953125h141.960938l-13.871094-25.046875c-6.757813-12.09375-21.207032-19.953125-36.769532-19.953125h-92.671874c-15.550782 0-29.996094 7.851562-36.796876 19.996094l-14.238281 26.003906c-5.613281 9-10.613281 14-19.882812 14-15.175781 0-24.09375-16.300781-16.730469-29.570312l15.914062-29.90625c14.011719-25.023438 41.484376-40.523438 71.734376-40.523438h92.671874c30.277344 0 57.757813 15.519531 71.726563 40.507812l37.847656 68.339844c.128907.230469.226563.472656.34375.707032 11.761719 12.261718 18.609375 27.640624 19.621094 44.160156.085937.75.140625 1.511718.140625 2.285156zm0 0" fill="#000000" data-original="#000000" class=""></path></g></svg>