<svg xmlns="http://www.w3.org/2000/svg" version="1.1" xmlns:xlink="http://www.w3.org/1999/xlink" xmlns:svgjs="http://svgjs.com/svgjs" width="512" height="512" x="0" y="0" viewBox="0 0 512 512" style="enable-background:new 0 0 512 512" xml:space="preserve" class=""><g>
<g xmlns="http://www.w3.org/2000/svg">
	<g>
		<path d="M467,115.393h-85v-45c0-24.813-20.187-45-45-45H45c-24.813,0-45,20.187-45,45v286.213l71.213-71.213H110v65    c0,24.813,20.187,45,45,45h265.787L512,486.607V160.393C512,135.58,491.813,115.393,467,115.393z M110,160.393v95H58.787    L30,284.18V70.393c0-8.271,6.729-15,15-15h292c8.271,0,15,6.729,15,15v45H155C130.187,115.393,110,135.58,110,160.393z     M482,414.18l-48.787-48.787H155c-8.271,0-15-6.729-15-15v-190c0-8.271,6.729-15,15-15h312c8.271,0,15,6.729,15,15V414.18z" fill="#000000" data-original="#000000" class=""></path>
	</g>
</g>
<g xmlns="http://www.w3.org/2000/svg">
	<g>
		<rect x="170" y="205.39" width="282" height="30" fill="#000000" data-original="#000000" class=""></rect>
	</g>
</g>
<g xmlns="http://www.w3.org/2000/svg">
	<g>
		<rect x="170" y="265.39" width="222" height="30" fill="#000000" data-original="#000000" class=""></rect>
	</g>
</g>
<g xmlns="http://www.w3.org/2000/svg">
</g>
<g xmlns="http://www.w3.org/2000/svg">
</g>
<g xmlns="http://www.w3.org/2000/svg">
</g>
<g xmlns="http://www.w3.org/2000/svg">
</g>
<g xmlns="http://www.w3.org/2000/svg">
</g>
<g xmlns="http://www.w3.org/2000/svg">
</g>
<g xmlns="http://www.w3.org/2000/svg">
</g>
<g xmlns="http://www.w3.org/2000/svg">
</g>
<g xmlns="http://www.w3.org/2000/svg">
</g>
<g xmlns="http://www.w3.org/2000/svg">
</g>
<g xmlns="http://www.w3.org/2000/svg">
</g>
<g xmlns="http://www.w3.org/2000/svg">
</g>
<g xmlns="http://www.w3.org/2000/svg">
</g>
<g xmlns="http://www.w3.org/2000/svg">
</g>
<g xmlns="http://www.w3.org/2000/svg">
</g>
</g></svg>  