<svg xmlns="http://www.w3.org/2000/svg" version="1.1" xmlns:xlink="http://www.w3.org/1999/xlink" xmlns:svgjs="http://svgjs.com/svgjs" width="512" height="512" x="0" y="0" viewBox="0 0 512 512" style="enable-background:new 0 0 512 512" xml:space="preserve" class=""><g><g xmlns="http://www.w3.org/2000/svg"><g><path d="m510.124 281.676c-6.958-30.158-33.865-53.803-63.382-60.855l-58.296-13.98-52.101-53.101c-21.76-22.163-52.051-34.875-83.105-34.875h-194.69c-3.849 0-7.357 2.209-9.02 5.682-1.662 3.472-1.185 7.589 1.229 10.588l11.898 14.784c.832 1.033.699 2.523-.303 3.393l-51.362 44.604c-2.187 1.899-3.443 4.654-3.443 7.551v54.701l-6.383 12.032c-.766 1.442-1.166 3.051-1.166 4.685v39.72c0 1.976.585 3.906 1.681 5.55l15.11 22.65c1.855 2.78 4.977 4.45 8.319 4.45h17.409c4.702 24.946 26.641 43.881 52.933 43.881s48.23-18.935 52.932-43.881h51.441c5.523 0 10-4.478 10-10s-4.477-10-10-10h-51.426c-4.737-25.128-27.447-43.874-52.948-43.874-25.528 0-48.217 18.775-52.951 43.874h-12.04l-10.46-15.68v-34.202l6.384-12.032c.766-1.443 1.166-3.053 1.166-4.687v-52.629l47.919-41.614c8.688-7.545 10.229-20.2 3.87-29.547h173.901c25.722 0 50.811 10.528 68.832 28.885l54.11 55.149c1.314 1.34 2.98 2.282 4.806 2.721l61.099 14.652c3.785.904 7.443 2.138 10.972 3.655l-7.189 4.621c-7.025 4.507-11.22 12.191-11.22 20.557 0 13.305 11.121 24.431 24.43 24.431h32.725c.116 1.371.195 2.745.195 4.119v16.293l-8.752 15.308h-41.478c-4.727-25.108-27.42-43.874-52.944-43.874-25.527 0-48.198 18.778-52.944 43.874h-48.065c-5.522 0-10 4.478-10 10s4.478 10 10 10h48.078c4.702 24.946 26.641 43.881 52.932 43.881s48.231-18.935 52.933-43.881h47.292c3.588 0 6.9-1.922 8.682-5.036l12.95-22.65c.864-1.512 1.318-3.223 1.318-4.964v-18.95c-.002-5.393-.639-10.795-1.878-15.979zm-414.672 91.46c-18.68 0-33.877-15.197-33.877-33.878 0-18.426 15.44-33.873 33.876-33.873 18.434 0 33.878 15.424 33.878 33.873 0 18.68-15.198 33.878-33.877 33.878zm293.373 0c-18.672 0-33.863-15.185-33.876-33.854 0-.009.001-.018.001-.027 0-18.676 15.198-33.87 33.88-33.87 18.676 0 33.87 15.194 33.87 33.87 0 .013.002.026.002.04-.02 18.663-15.208 33.841-33.877 33.841zm67.113-100.915c-1.934-1.928-1.583-5.355.739-6.844l14.912-9.586c5.666 5.071 10.529 11.048 14.148 17.744h-26.657c-1.59 0-2.642-.815-3.142-1.314z" fill="#000000" data-original="#000000" class=""></path><path d="m326.977 237.757c11.596 0 18.004-14.172 10.344-22.897l-26.034-29.657c-16.596-18.904-40.542-29.747-65.699-29.747h-118.935c-5.53 0-10.809 2.069-14.862 5.826l-35.59 32.973c-4.013 3.719-5.451 9.462-3.663 14.632 1.787 5.167 6.463 8.793 11.913 9.237 46.575 3.8 201.629 16.441 241.415 19.59.371.028.741.043 1.111.043zm-201.593-61.805c.346-.32.796-.497 1.269-.497h79.681v32.53c-40.164-3.266-80.519-6.555-106.191-8.648zm100.949 33.658v-34.155h19.253c19.401 0 37.87 8.362 50.669 22.941l15.943 18.162c-20.749-1.665-52.355-4.226-85.865-6.948z" fill="#000000" data-original="#000000" class=""></path><path d="m216.333 275.5h22.365c5.523 0 10-4.478 10-10s-4.477-10-10-10h-22.365c-5.523 0-10 4.478-10 10s4.478 10 10 10z" fill="#000000" data-original="#000000" class=""></path><path d="m81.957 241.601c-5.523 0-10 4.478-10 10s4.477 10 10 10h22.366c5.523 0 10-4.478 10-10s-4.477-10-10-10z" fill="#000000" data-original="#000000" class=""></path><path d="m254.05 335.43c-1.64-3.933-5.714-6.463-9.971-6.145-4.177.313-7.77 3.278-8.895 7.307-2.387 8.556 7.197 15.741 14.768 11.238 4.217-2.509 5.949-7.88 4.098-12.4z" fill="#000000" data-original="#000000" class=""></path></g></g></g></svg>