<svg xmlns="http://www.w3.org/2000/svg" version="1.1" xmlns:xlink="http://www.w3.org/1999/xlink" xmlns:svgjs="http://svgjs.com/svgjs" width="512" height="512" x="0" y="0" viewBox="0 0 32 32" style="enable-background:new 0 0 512 512" xml:space="preserve" class=""><g><path xmlns="http://www.w3.org/2000/svg" id="XMLID_1644_" d="m23.5 30c-1.93 0-3.5-1.57-3.5-3.5v-13.133c-1.865-1.189-3-3.234-3-5.473 0-2.45 1.358-4.666 3.544-5.785.311-.158.681-.145.978.037.297.183.478.505.478.854v4.323l1.5.6 1.5-.6v-4.323c0-.349.181-.671.478-.854.297-.182.667-.195.978-.037 2.186 1.12 3.544 3.335 3.544 5.786 0 2.238-1.135 4.283-3 5.473v13.132c0 1.93-1.57 3.5-3.5 3.5zm-3.5-24.934c-.637.785-1 1.775-1 2.828 0 1.694.941 3.229 2.456 4.005.334.171.544.515.544.89v13.711c0 .827.673 1.5 1.5 1.5s1.5-.673 1.5-1.5v-13.711c0-.375.21-.719.544-.89 1.515-.776 2.456-2.31 2.456-4.004 0-1.053-.363-2.043-1-2.828v2.933c0 .409-.249.776-.628.929l-2.5 1c-.239.096-.504.096-.743 0l-2.5-1c-.38-.153-.629-.52-.629-.929z" fill="#000000" data-original="#000000" class=""></path><path xmlns="http://www.w3.org/2000/svg" d="m17.074 30h-2.147c-1.039 0-1.915-.811-1.994-1.846l-.126-1.635c-.686-.208-1.35-.484-1.985-.824l-1.246 1.067c-.789.677-1.981.63-2.715-.103l-1.52-1.521c-.734-.734-.78-1.927-.104-2.716l1.067-1.245c-.34-.635-.616-1.299-.824-1.985l-1.634-.125c-1.035-.078-1.846-.954-1.846-1.993v-2.148c0-1.039.811-1.915 1.847-1.994l1.634-.125c.208-.687.484-1.351.824-1.985l-1.068-1.247c-.676-.788-.63-1.98.105-2.716l1.518-1.519c.735-.735 1.928-.78 2.716-.104l1.246 1.067c.635-.34 1.299-.616 1.985-.824l.126-1.635c.079-1.033.955-1.844 1.993-1.844h1.074c.552 0 1 .447 1 1s-.448 1-1 1h-1.074l-.18 2.341c-.034.436-.347.799-.772.897-.967.223-1.887.604-2.734 1.135-.369.233-.848.198-1.181-.089l-1.785-1.529-1.518 1.52 1.529 1.784c.285.332.32.811.088 1.181-.53.848-.912 1.768-1.135 2.734-.098.426-.462.739-.898.772l-2.34.18v2.148l2.34.18c.436.033.8.347.898.772.223.967.604 1.887 1.135 2.734.232.37.196.849-.088 1.181l-1.529 1.784 1.519 1.52 1.784-1.529c.333-.286.812-.321 1.181-.089.848.53 1.768.912 2.734 1.135.426.099.739.462.772.897l.18 2.341h2.147c.042-.55.521-.961 1.074-.92.551.042.963.523.92 1.074-.079 1.035-.955 1.846-1.993 1.846z" fill="#000000" data-original="#000000" class=""></path><path xmlns="http://www.w3.org/2000/svg" d="m9 16c0-3.434 2.454-6.337 5.835-6.903.543-.097 1.061.276 1.151.821.091.545-.276 1.06-.821 1.151-2.413.405-4.165 2.479-4.165 4.931 0 3.453 3.43 5.861 6.667 4.716.518-.185 1.092.087 1.277.608.184.521-.088 1.092-.609 1.276-4.553 1.611-9.335-1.784-9.335-6.6z" fill="#000000" data-original="#000000" class=""></path></g></svg>